Coordinates
version=1
nRows=17
nColumns=36
inDegrees=yes

Units are S.I. units (second, meters, Newtons, ...)
If the header above contains a line with 'inDegrees', this indicates whether rotational values are in degrees (yes) or radians (no).

endheader
time	pelvis_tilt	pelvis_list	pelvis_rotation	pelvis_tx	pelvis_ty	pelvis_tz	hip_flexion_r	hip_adduction_r	hip_rotation_r	knee_angle_r	knee_angle_r_beta	ankle_angle_r	subtalar_angle_r	mtp_angle_r	hip_flexion_l	hip_adduction_l	hip_rotation_l	knee_angle_l	knee_angle_l_beta	ankle_angle_l	subtalar_angle_l	mtp_angle_l	lumbar_extension	lumbar_bending	lumbar_rotation	arm_flex_r	arm_add_r	arm_rot_r	elbow_flex_r	pro_sup_r	arm_flex_l	arm_add_l	arm_rot_l	elbow_flex_l	pro_sup_l
      0.36000000	     -1.10793683	     -1.60684348	      1.57456131	      0.29811771	      1.04723787	     -0.18691524	     -0.78303027	      8.17943793	     -8.53876345	      0.52238496	      0.00911734	      4.21066792	      8.55312930	     -6.84514295	     27.37672934	     -3.73555610	     -1.40831978	     39.20316463	      0.68422430	     -0.08576234	    -13.40072370	     -6.84514295	    -13.16400328	    -12.11117664	      8.77460430	     -2.03374952	    -10.78591714	    -10.38759809	     53.58222182	    108.70174061	     -8.21148256	     -5.74296272	    -20.42865539	     42.54926248	     95.86384868
      0.37000000	     -0.94316807	     -1.82695951	      1.04177147	      0.31008735	      1.04652227	     -0.18530209	     -1.76251167	      8.49938526	     -8.14796473	      0.51623151	      0.00900994	      4.90421914	      8.86703293	     -6.86028978	     27.22103995	     -4.21924334	     -2.15678560	     35.48274909	      0.61929080	     -0.79664212	    -12.96193387	     -6.86028978	    -13.30539232	    -12.59660965	      9.59307572	     -1.51622515	    -11.55060937	    -10.05678206	     54.84186701	    108.52299411	     -8.67911052	     -5.38708986	    -20.88058226	     40.81564731	     95.69543788
      0.38000000	     -1.01640497	     -2.10661209	      0.56790602	      0.32198513	      1.04520935	     -0.18373285	     -2.47854318	      8.86401776	     -7.70142092	      0.51265826	      0.00894757	      5.46108009	      9.19374265	     -6.86828670	     27.31248624	     -4.70358868	     -2.80021298	     31.79546542	      0.55493556	     -1.44137478	    -12.17032333	     -6.86828670	    -13.19587518	    -13.04365218	     10.22725514	     -0.94327018	    -12.22398567	     -9.79092353	     56.05425732	    108.40453516	     -9.36667052	     -5.10322437	    -21.24662501	     39.38636412	     95.51803720
      0.39000000	     -0.76598244	     -2.37021846	      0.10516230	      0.33416666	      1.04412745	     -0.18229005	     -3.56028566	      9.19385195	     -7.43780820	      0.52833418	      0.00922117	      6.28007732	      9.48858197	     -6.88029772	     26.94361863	     -5.19560430	     -3.74694033	     28.02125093	      0.48906309	     -2.16083466	    -11.35778187	     -6.88029772	    -13.40436294	    -13.49099119	     11.07693280	     -0.54672241	    -13.05533910	     -9.41683315	     57.30452842	    108.25861064	     -9.73211277	     -4.81233291	    -21.64761399	     37.53620725	     95.36211085
      0.40000000	     -0.67225993	     -2.71586021	     -0.28122686	      0.34629081	      1.04255705	     -0.18092391	     -4.45809393	      9.59537706	     -7.13883853	      0.55279341	      0.00964807	      6.96095424	      9.84185514	     -6.89582424	     26.76299926	     -5.69418977	     -4.52739829	     24.39195828	      0.42571998	     -2.60245382	    -10.18935244	     -6.89582424	    -13.45960376	    -13.85851205	     11.78609350	     -0.13559921	    -13.81723690	     -9.19166238	     58.54008637	    108.05517901	    -10.23756744	     -4.60291607	    -21.86127214	     35.88287442	     95.31095435
      0.41000000	     -0.69972084	     -3.05750179	     -0.61116562	      0.35844413	      1.04066180	     -0.17971347	     -5.21140573	      9.98231985	     -6.73698731	      0.62571553	      0.01092080	      7.62575904	      9.95760868	     -6.91013809	     26.68421408	     -6.14797387	     -5.33676046	     20.81666196	      0.36331929	     -2.87210143	     -8.56796020	     -6.91013809	    -13.37539903	    -14.22079537	     12.40836005	      0.26345605	    -14.57663109	     -8.92470706	     59.68088881	    107.86030307	    -10.81001053	     -4.40091637	    -22.06700997	     34.44182101	     95.27527389
      0.42000000	     -0.75223936	     -3.41496104	     -0.89413626	      0.37067501	      1.03853970	     -0.17856229	     -5.93179779	     10.38275766	     -6.32798263	      0.71053009	      0.01240109	      8.24757551	     10.00561164	     -6.92972492	     26.62193132	     -6.58730392	     -6.13461362	     17.38603272	      0.30344351	     -2.85691410	     -6.58679344	     -6.92972492	    -13.26110114	    -14.57442253	     12.99884590	      0.61419918	    -15.31599135	     -8.68811924	     60.77536332	    107.65054658	    -11.39205150	     -4.25829445	    -22.19399486	     33.11200138	     95.38880027
      0.43000000	     -0.89154142	     -3.77870712	     -1.16661393	      0.38290495	      1.03615490	     -0.17742244	     -6.52305562	     10.78725610	     -5.87297316	      0.86547380	      0.01510537	      8.86824397	      9.88202006	     -6.97739183	     26.64148873	     -7.01935852	     -6.91853637	     14.11831513	      0.24641108	     -2.67248732	     -4.31838169	     -6.97739183	    -13.05210090	    -14.93243797	     13.60484413	      0.91188326	    -16.02122842	     -8.52556703	     61.83569618	    107.34681602	    -12.00379821	     -4.14094114	    -22.26353343	     31.97352423	     96.07039630
      0.44000000	     -1.01461263	     -4.11720665	     -1.40485001	      0.39521048	      1.03369867	     -0.17640826	     -7.10269371	     11.15203593	     -5.47384359	      1.08531622	      0.01894234	      9.47155038	      9.72672167	     -6.99104950	     26.53941294	     -7.34773949	     -7.41451273	     10.83147043	      0.18904482	     -2.69584688	     -2.53033867	     -6.99104950	    -12.85697763	    -15.32058041	     14.09300845	      1.26839432	    -16.72115719	     -8.24001642	     62.72483149	    107.26111898	    -12.66964531	     -3.98164452	    -22.56196422	     31.17006830	     96.11788170
      0.45000000	     -1.34848723	     -4.49504643	     -1.62549225	      0.40749738	      1.03087776	     -0.17543944	     -7.38391546	     11.55688712	     -5.12347742	      1.44010384	      0.02513455	     10.04947716	      9.61562692	     -6.99715601	     26.64936667	     -7.68798428	     -7.59002655	      7.74160206	      0.13511645	     -2.57608494	     -0.97064812	     -6.99715601	    -12.41099080	    -15.66671048	     14.57177026	      1.56736695	    -17.35059243	     -8.04700377	     63.51471829	    107.20720188	    -13.42978208	     -3.85639906	    -22.76812033	     30.68873032	     96.09450505
      0.46000000	     -1.49213452	     -4.82176668	     -1.86659639	      0.41998591	      1.02830824	     -0.17446355	     -7.87561781	     11.89301136	     -4.83208954	      1.81032216	      0.03159608	     10.69815650	      9.42246602	     -7.00389866	     26.51335802	     -8.00969093	     -7.91949322	      4.88496221	      0.08525867	     -2.37302484	      0.61969061	     -7.00389866	    -12.17454104	    -16.08464596	     15.12813829	      1.75642102	    -18.00065991	     -7.85496605	     64.28241535	    107.17186632	    -14.09694433	     -3.75464257	    -23.02280311	     30.26040681	     96.10585981
      0.47000000	     -1.51017818	     -5.16181451	     -2.13031514	      0.43263198	      1.02587647	     -0.17342688	     -8.49783367	     12.22509762	     -4.57281182	      2.21328955	      0.03862919	     11.23016722	      9.36503621	     -7.02193721	     26.37683211	     -8.41851833	     -8.71980940	      2.65170474	      0.04628098	     -1.68253923	      2.55468309	     -7.02193721	    -12.07123571	    -16.50835021	     15.73593782	      1.83011577	    -18.56605319	     -7.89191544	     65.19307103	    107.11060933	    -14.74185284	     -3.63734392	    -23.46327193	     29.99089466	     96.35584148
      0.48000000	     -1.78608003	     -5.58950347	     -2.35449409	      0.44511220	      1.02310953	     -0.17241565	     -8.76016232	     12.65726353	     -4.41047529	      2.73785431	      0.04778457	     11.57676796	      9.26125547	     -7.02565955	     26.71242301	     -8.90463543	     -9.03161701	      1.14430890	      0.01997196	     -1.06781412	      3.22453777	     -7.02565955	    -11.69763218	    -16.82168516	     16.17595209	      2.03073408	    -19.02396763	     -7.84612987	     65.79759820	    107.09961628	    -15.50214764	     -3.58881112	    -23.61240047	     29.80775595	     96.35533992
      0.49000000	     -2.01320099	     -6.00724928	     -2.63579849	      0.45782380	      1.02047313	     -0.17126564	     -9.09085254	     13.06920044	     -4.14596790	      3.29381252	      0.05748787	     12.12239546	      9.07285864	     -7.04314014	     27.34222899	     -9.55653382	    -10.74239515	      0.76257649	      0.01330947	      0.62520680	      5.91689384	     -7.04314014	    -11.35825570	    -17.18256297	     16.94929041	      1.76854265	    -19.51563924	     -8.07982098	     66.70231098	    107.04939332	    -16.08808592	     -3.50934500	    -24.14641548	     29.82099650	     96.52427004
      0.50000000	     -2.13437822	     -6.39559990	     -2.80608409	      0.47054487	      1.01807274	     -0.17030332	     -9.52895346	     13.43471909	     -4.09286349	      3.80203388	      0.06635801	     12.29565698	      9.01425741	     -7.04596320	     27.76722916	    -10.06235836	    -11.27061602	      0.56230247	      0.00981403	      1.36822265	      5.86659127	     -7.04596320	    -11.17857295	    -17.55799183	     17.28391383	      1.86712908	    -19.85137927	     -8.08887810	     67.24107715	    107.07967759	    -16.76770289	     -3.51001012	    -24.26883747	     29.67806268	     96.52664388
      0.51000000	     -2.30542778	     -6.64590906	     -3.05260594	      0.48357184	      1.01577933	     -0.16937056	     -9.87155346	     13.60959819	     -4.02623329	      4.45651661	      0.07778089	     12.75965714	      9.12091449	     -7.06076483	     28.11671676	    -10.48934745	    -11.90381336	      0.59021954	      0.01030127	      2.19616953	      6.34333013	     -7.06076483	    -10.90968483	    -18.09895718	     18.05270649	      1.36217264	    -20.17432835	     -8.55314374	     68.15121883	    107.08209952	    -17.25309985	     -3.53767408	    -24.72144656	     29.74211205	     96.57648866
      0.52000000	     -2.38508398	     -6.83856442	     -3.06306127	      0.49685012	      1.01378405	     -0.16871809	    -10.46250001	     13.75421120	     -4.03982727	      4.73133258	      0.08257733	     12.72826845	      9.12020964	     -7.06118155	     28.27397838	    -10.74066052	    -11.85808498	      0.69303261	      0.01209570	      2.21867829	      6.23776592	     -7.06118155	    -10.79771752	    -18.70249328	     18.18669855	      1.33631233	    -20.34871942	     -8.63372104	     68.25804601	    107.08551411	    -17.84255611	     -3.68502689	    -24.81184108	     29.52680685	     96.54835324
